<?xml version="1.0" encoding="utf-8"?>
<!-- Generator: Adobe Illustrator 27.5.0, SVG Export Plug-In . SVG Version: 6.00 Build 0)  -->
<svg version="1.1" id="Outline" xmlns="http://www.w3.org/2000/svg" xmlns:xlink="http://www.w3.org/1999/xlink" x="0px" y="0px"
	 viewBox="0 0 2000 2000" style="enable-background:new 0 0 2000 2000;" xml:space="preserve">
<rect style="fill:#FFFFFF;" width="2000" height="2000"/>
<g>
	<path d="M759.193,519.326c29.408-1.764,60.247,2.324,86.293,16.831c9.443,4.773,14.776,14.507,16.893,24.551
		c13.095,54.935,25.236,110.097,38.581,164.969c5.085,18.803-1.64,39.203-14.901,52.984c-14.133,18.782-37.066,26.98-57.425,36.983
		C804.414,717.169,783.599,617.781,759.193,519.326z"/>
	<path d="M676.864,548.63c19.384-13.303,41.735-21.231,64.46-26.689c25.132,98.745,46.861,198.445,69.815,297.709
		c-4.919,15.773-27.27,12.079-35.26,25.216c-1.204,5.251,1.66,10.481,2.906,15.544c20.546,62.655,53.025,120.827,90.838,174.641
		c60.061,84.072,135.873,157.27,223.64,212.038c8.405,5.313,16.997,10.771,26.896,12.826c10.709-7.264,10.418-26.129,24.842-28.121
		c87.289,36.049,174.62,72.139,261.867,108.312c3.051,1.619,7.471,1.992,9.505,4.96c-4.919,16.644-13.76,31.919-23.742,46.01
		c-32.604,37.543-70.313,76.228-120.951,86.667c-52.237,11.062-104.182-7.513-152.061-26.793
		c-173.105-73.446-318.109-205.874-417.581-364.431c-58.961-94.823-102.999-199.877-121.553-310.327
		c-8.177-45.782-9.069-95.383,11.705-138.114C610.37,600.265,642.932,572.081,676.864,548.63z"/>
	<path d="M1191.529,1167.125c15.793-11.331,37.709-15.544,55.889-7.554c49.808,20.401,99.471,41.216,148.927,62.489
		c11.933,4.483,18.657,16.333,21.999,27.996c7.492,24.904,8.509,51.78,3.383,77.224c-54.831-22.746-109.786-45.243-164.783-67.573
		c-35.634-14.714-70.79-30.694-107.067-43.686C1161.872,1198.317,1173.411,1179.286,1191.529,1167.125z"/>
</g>
</svg>
