<?xml version="1.0" encoding="utf-8"?>
<!-- Generator: Adobe Illustrator 27.5.0, SVG Export Plug-In . SVG Version: 6.00 Build 0)  -->
<svg version="1.1" id="Layer_1" xmlns="http://www.w3.org/2000/svg" xmlns:xlink="http://www.w3.org/1999/xlink" x="0px" y="0px"
	 viewBox="0 0 2024.162 2024.162" style="enable-background:new 0 0 2024.162 2024.162;" xml:space="preserve">
<rect style="fill:#FFFFFF;" width="2024.162" height="2024.162"/>
<g>
	<path d="M1012.087,595.287c-230.193,0-416.8,186.607-416.8,416.8c0,109.281,50.316,198.666,50.316,198.666l-44.53,207.566
		l210.607-40.692c0,0,97.901,51.246,200.408,51.246c230.178,0,416.785-186.608,416.785-416.786
		C1428.873,781.893,1242.265,595.287,1012.087,595.287z M1259.829,1259.829c-66.168,66.182-154.166,102.625-247.742,102.625
		c-83.215,0-166.918-42.302-169.678-43.719l-20.619-10.922l-22.715,4.59l-111.997,21.652l28.796-134.255l-12.339-21.52
		c-1.83-3.395-41.829-78.359-41.829-166.195c0-93.591,36.457-181.574,102.624-247.757
		c66.183-66.168,154.166-102.624,247.757-102.624c93.577,0,181.574,36.456,247.742,102.624
		c66.183,66.182,102.625,154.166,102.625,247.757C1362.454,1105.664,1326.012,1193.661,1259.829,1259.829z"/>
	<path d="M905.473,831.006l37.984,86.911c0.855,1.957,1.297,4.07,1.297,6.206v7.416c0,3.816-1.408,7.498-3.954,10.34l-28.454,31.763
		c0,0-6.029,6.532-2.763,12.561c3.244,5.989,39.203,76.912,139.387,126.243c1.422,0.7,2.948,1.174,4.515,1.415
		c5.117,0.786,16.749,2.207,20.528-0.41c4.446-3.078,29.692-39.063,34.318-45.685c0.409-0.585,0.768-1.186,1.092-1.821
		c1.269-2.489,5.928-9.918,15.087-6.76c9.42,3.248,70.918,34.216,87.716,42.703c3.751,1.895,6.689,5.193,7.808,9.244
		c0.075,0.271,0.14,0.542,0.194,0.812c0.094,0.471,0.165,1.437,0.216,2.766c1.001,25.82-9.975,50.769-29.784,67.361
		c-10.221,8.562-22.449,16.779-35.627,21.446c-36.177,12.813-108.154-10.175-126.996-20.726
		c-18.842-10.552-98.859-49.115-175.735-149.105c-76.876-99.989-44.53-157.458-34.167-170.836
		c6.563-8.472,25.502-27.725,34.266-36.529c2.901-2.915,6.837-4.551,10.95-4.558l27.896-0.049
		C897.415,821.705,903.003,825.354,905.473,831.006z"/>
</g>
</svg>
